<svg id="SvgjsSvg1006" width="1992.375" height="877" xmlns="http://www.w3.org/2000/svg" version="1.1" xmlns:xlink="http://www.w3.org/1999/xlink" xmlns:svgjs="http://svgjs.com/svgjs"><defs id="SvgjsDefs1007"><marker id="SvgjsMarker1031" markerWidth="14" markerHeight="10" refX="10" refY="5" viewBox="0 0 14 10" orient="auto" markerUnits="userSpaceOnUse" stroke-dasharray="0,0"><path id="SvgjsPath1032" d="M0,0 L14,5 L0,10 L0,0" fill="#323232" stroke="#323232" stroke-width="1"></path></marker><marker id="SvgjsMarker1035" markerWidth="14" markerHeight="10" refX="10" refY="5" viewBox="0 0 14 10" orient="auto" markerUnits="userSpaceOnUse" stroke-dasharray="0,0"><path id="SvgjsPath1036" d="M0,0 L14,5 L0,10 L0,0" fill="#323232" stroke="#323232" stroke-width="1"></path></marker><marker id="SvgjsMarker1065" markerWidth="14" markerHeight="10" refX="10" refY="5" viewBox="0 0 14 10" orient="auto" markerUnits="userSpaceOnUse" stroke-dasharray="0,0"><path id="SvgjsPath1066" d="M0,0 L14,5 L0,10 L0,0" fill="#323232" stroke="#323232" stroke-width="1"></path></marker><marker id="SvgjsMarker1077" markerWidth="14" markerHeight="10" refX="10" refY="5" viewBox="0 0 14 10" orient="auto" markerUnits="userSpaceOnUse" stroke-dasharray="0,0"><path id="SvgjsPath1078" d="M0,0 L14,5 L0,10 L0,0" fill="#323232" stroke="#323232" stroke-width="1"></path></marker><marker id="SvgjsMarker1093" markerWidth="14" markerHeight="10" refX="10" refY="5" viewBox="0 0 14 10" orient="auto" markerUnits="userSpaceOnUse" stroke-dasharray="0,0"><path id="SvgjsPath1094" d="M0,0 L14,5 L0,10 L0,0" fill="#323232" stroke="#323232" stroke-width="1"></path></marker><marker id="SvgjsMarker1105" markerWidth="14" markerHeight="10" refX="10" refY="5" viewBox="0 0 14 10" orient="auto" markerUnits="userSpaceOnUse" stroke-dasharray="0,0"><path id="SvgjsPath1106" d="M0,0 L14,5 L0,10 L0,0" fill="#323232" stroke="#323232" stroke-width="1"></path></marker><marker id="SvgjsMarker1151" markerWidth="14" markerHeight="10" refX="10" refY="5" viewBox="0 0 14 10" orient="auto" markerUnits="userSpaceOnUse" stroke-dasharray="0,0"><path id="SvgjsPath1152" d="M0,0 L14,5 L0,10 L0,0" fill="#323232" stroke="#323232" stroke-width="1"></path></marker><marker id="SvgjsMarker1155" markerWidth="14" markerHeight="10" refX="10" refY="5" viewBox="0 0 14 10" orient="auto" markerUnits="userSpaceOnUse" stroke-dasharray="0,0"><path id="SvgjsPath1156" d="M0,0 L14,5 L0,10 L0,0" fill="#323232" stroke="#323232" stroke-width="1"></path></marker><marker id="SvgjsMarker1167" markerWidth="14" markerHeight="10" refX="10" refY="5" viewBox="0 0 14 10" orient="auto" markerUnits="userSpaceOnUse" stroke-dasharray="0,0"><path id="SvgjsPath1168" d="M0,0 L14,5 L0,10 L0,0" fill="#323232" stroke="#323232" stroke-width="1"></path></marker><marker id="SvgjsMarker1177" markerWidth="14" markerHeight="10" refX="10" refY="5" viewBox="0 0 14 10" orient="auto" markerUnits="userSpaceOnUse" stroke-dasharray="0,0"><path id="SvgjsPath1178" d="M0,0 L14,5 L0,10 L0,0" fill="#323232" stroke="#323232" stroke-width="1"></path></marker><marker id="SvgjsMarker1203" markerWidth="14" markerHeight="10" refX="10" refY="5" viewBox="0 0 14 10" orient="auto" markerUnits="userSpaceOnUse" stroke-dasharray="0,0"><path id="SvgjsPath1204" d="M0,0 L14,5 L0,10 L0,0" fill="#323232" stroke="#323232" stroke-width="1"></path></marker><marker id="SvgjsMarker1259" markerWidth="14" markerHeight="10" refX="10" refY="5" viewBox="0 0 14 10" orient="auto" markerUnits="userSpaceOnUse" stroke-dasharray="0,0"><path id="SvgjsPath1260" d="M0,0 L14,5 L0,10 L0,0" fill="#323232" stroke="#323232" stroke-width="1"></path></marker><marker id="SvgjsMarker1271" markerWidth="14" markerHeight="10" refX="10" refY="5" viewBox="0 0 14 10" orient="auto" markerUnits="userSpaceOnUse" stroke-dasharray="0,0"><path id="SvgjsPath1272" d="M0,0 L14,5 L0,10 L0,0" fill="#323232" stroke="#323232" stroke-width="1"></path></marker><marker id="SvgjsMarker1289" markerWidth="14" markerHeight="10" refX="10" refY="5" viewBox="0 0 14 10" orient="auto" markerUnits="userSpaceOnUse" stroke-dasharray="0,0"><path id="SvgjsPath1290" d="M0,0 L14,5 L0,10 L0,0" fill="#323232" stroke="#323232" stroke-width="1"></path></marker><marker id="SvgjsMarker1303" markerWidth="14" markerHeight="10" refX="10" refY="5" viewBox="0 0 14 10" orient="auto" markerUnits="userSpaceOnUse" stroke-dasharray="0,0"><path id="SvgjsPath1304" d="M0,0 L14,5 L0,10 L0,0" fill="#ffcdd2" stroke="#ffcdd2" stroke-width="1"></path></marker><marker id="SvgjsMarker1311" markerWidth="14" markerHeight="10" refX="10" refY="5" viewBox="0 0 14 10" orient="auto" markerUnits="userSpaceOnUse" stroke-dasharray="0,0"><path id="SvgjsPath1312" d="M0,0 L14,5 L0,10 L0,0" fill="#ffcdd2" stroke="#ffcdd2" stroke-width="1"></path></marker><marker id="SvgjsMarker1329" markerWidth="14" markerHeight="10" refX="10" refY="5" viewBox="0 0 14 10" orient="auto" markerUnits="userSpaceOnUse" stroke-dasharray="0,0"><path id="SvgjsPath1330" d="M0,0 L14,5 L0,10 L0,0" fill="#323232" stroke="#323232" stroke-width="1"></path></marker><pattern id="SvgjsPattern1343" x="0" y="0" width="296" height="117.5" patternUnits="userSpaceOnUse"><image id="SvgjsImage1344" xlink:href="https://cdn.processon.com/62be912c1e085372914bd68d?e=1656659772&amp;amp;token=trhI0BY8QfVrIGn9nENop6JAc6l5nZuxhjQ62UfM:IsEhT5b9yHOm8CIwXD2y46jptfA=" width="296" height="117.5" preserveAspectRatio="none" crossOrigin="anonymous" x="0" y="0"></image></pattern><marker id="SvgjsMarker1347" markerWidth="14" markerHeight="10" refX="10" refY="5" viewBox="0 0 14 10" orient="auto" markerUnits="userSpaceOnUse" stroke-dasharray="0,0"><path id="SvgjsPath1348" d="M0,0 L14,5 L0,10 L0,0" fill="#323232" stroke="#323232" stroke-width="1"></path></marker><marker id="SvgjsMarker1361" markerWidth="14" markerHeight="10" refX="10" refY="5" viewBox="0 0 14 10" orient="auto" markerUnits="userSpaceOnUse" stroke-dasharray="0,0"><path id="SvgjsPath1362" d="M0,0 L14,5 L0,10 L0,0" fill="#323232" stroke="#323232" stroke-width="1"></path></marker><marker id="SvgjsMarker1371" markerWidth="14" markerHeight="10" refX="10" refY="5" viewBox="0 0 14 10" orient="auto" markerUnits="userSpaceOnUse" stroke-dasharray="0,0"><path id="SvgjsPath1372" d="M0,0 L14,5 L0,10 L0,0" fill="#323232" stroke="#323232" stroke-width="1"></path></marker><marker id="SvgjsMarker1375" markerWidth="14" markerHeight="10" refX="10" refY="5" viewBox="0 0 14 10" orient="auto" markerUnits="userSpaceOnUse" stroke-dasharray="0,0"><path id="SvgjsPath1376" d="M0,0 L14,5 L0,10 L0,0" fill="#323232" stroke="#323232" stroke-width="1"></path></marker><marker id="SvgjsMarker1379" markerWidth="14" markerHeight="10" refX="10" refY="5" viewBox="0 0 14 10" orient="auto" markerUnits="userSpaceOnUse" stroke-dasharray="0,0"><path id="SvgjsPath1380" d="M0,0 L14,5 L0,10 L0,0" fill="#ffcdd2" stroke="#ffcdd2" stroke-width="1"></path></marker><marker id="SvgjsMarker1387" markerWidth="14" markerHeight="10" refX="10" refY="5" viewBox="0 0 14 10" orient="auto" markerUnits="userSpaceOnUse" stroke-dasharray="0,0"><path id="SvgjsPath1388" d="M0,0 L14,5 L0,10 L0,0" fill="#323232" stroke="#323232" stroke-width="1"></path></marker><marker id="SvgjsMarker1399" markerWidth="14" markerHeight="10" refX="10" refY="5" viewBox="0 0 14 10" orient="auto" markerUnits="userSpaceOnUse" stroke-dasharray="0,0"><path id="SvgjsPath1400" d="M0,0 L14,5 L0,10 L0,0" fill="#323232" stroke="#323232" stroke-width="1"></path></marker><marker id="SvgjsMarker1415" markerWidth="14" markerHeight="10" refX="10" refY="5" viewBox="0 0 14 10" orient="auto" markerUnits="userSpaceOnUse" stroke-dasharray="0,0"><path id="SvgjsPath1416" d="M0,0 L14,5 L0,10 L0,0" fill="#323232" stroke="#323232" stroke-width="1"></path></marker><marker id="SvgjsMarker1427" markerWidth="14" markerHeight="10" refX="10" refY="5" viewBox="0 0 14 10" orient="auto" markerUnits="userSpaceOnUse" stroke-dasharray="0,0"><path id="SvgjsPath1428" d="M0,0 L14,5 L0,10 L0,0" fill="#323232" stroke="#323232" stroke-width="1"></path></marker><marker id="SvgjsMarker1431" markerWidth="14" markerHeight="10" refX="10" refY="5" viewBox="0 0 14 10" orient="auto" markerUnits="userSpaceOnUse" stroke-dasharray="0,0"><path id="SvgjsPath1432" d="M0,0 L14,5 L0,10 L0,0" fill="#323232" stroke="#323232" stroke-width="1"></path></marker></defs><rect id="svgbackgroundid" width="1992.375" height="877" fill="#ffffff"></rect><g id="SvgjsG1009" transform="translate(781.375,393)"><path id="SvgjsPath1010" d="M 0 4Q 0 0 4 0L 96 0Q 100 0 100 4L 100 66Q 100 70 96 70L 4 70Q 0 70 0 66Z" stroke="rgba(50,50,50,1)" stroke-width="2" fill-opacity="1" fill="#fff176"></path><g id="SvgjsG1011"><text id="SvgjsText1012" font-family="微软雅黑" text-anchor="middle" font-size="13px" width="80px" fill="#323232" font-weight="400" align="middle" lineHeight="125%" anchor="middle" family="微软雅黑" size="13px" weight="400" font-style="" opacity="1" y="15.875" transform="rotate(0)"><tspan id="SvgjsTspan1013" dy="16" x="50"><tspan id="SvgjsTspan1014" style="text-decoration:;">周武帝</tspan></tspan><tspan id="SvgjsTspan1015" dy="16" x="50"><tspan id="SvgjsTspan1016" style="text-decoration:;">宇文邕</tspan></tspan></text></g></g><g id="SvgjsG1017" transform="translate(762.375,220)"><path id="SvgjsPath1018" d="M 0 4Q 0 0 4 0L 134 0Q 138 0 138 4L 138 73Q 138 77 134 77L 4 77Q 0 77 0 73Z" stroke="rgba(50,50,50,1)" stroke-width="2" fill-opacity="1" fill="#ffffff"></path><g id="SvgjsG1019"><text id="SvgjsText1020" font-family="微软雅黑" text-anchor="middle" font-size="13px" width="118px" fill="#323232" font-weight="400" align="middle" lineHeight="125%" anchor="middle" family="微软雅黑" size="13px" weight="400" font-style="" opacity="1" y="3.375" transform="rotate(0)"><tspan id="SvgjsTspan1021" dy="16" x="69"><tspan id="SvgjsTspan1022" style="text-decoration:;">杀北魏孝武帝</tspan></tspan><tspan id="SvgjsTspan1023" dy="16" x="69"><tspan id="SvgjsTspan1024" style="text-decoration:;">建立并专制西魏追尊</tspan></tspan><tspan id="SvgjsTspan1025" dy="16" x="69"><tspan id="SvgjsTspan1026" style="text-decoration:;">北周文帝</tspan></tspan><tspan id="SvgjsTspan1027" dy="16" x="69"><tspan id="SvgjsTspan1028" style="text-decoration:;">宇文泰</tspan></tspan></text></g></g><g id="SvgjsG1029"><path id="SvgjsPath1030" d="M831.375 298L831.375 345L831.375 345L831.375 389.4" stroke="#323232" stroke-width="2" fill="none" marker-end="url(#SvgjsMarker1031)"></path></g><g id="SvgjsG1033"><path id="SvgjsPath1034" d="M831.375 298L831.375 343.75L985.375 343.75L985.375 389.4" stroke="#323232" stroke-width="2" fill="none" marker-end="url(#SvgjsMarker1035)"></path></g><g id="SvgjsG1037" transform="translate(935.375,393)"><path id="SvgjsPath1038" d="M 0 4Q 0 0 4 0L 96 0Q 100 0 100 4L 100 66Q 100 70 96 70L 4 70Q 0 70 0 66Z" stroke="rgba(50,50,50,1)" stroke-width="2" fill-opacity="1" fill="#ffffff"></path><g id="SvgjsG1039"><text id="SvgjsText1040" font-family="微软雅黑" text-anchor="middle" font-size="13px" width="80px" fill="#323232" font-weight="400" align="middle" lineHeight="125%" anchor="middle" family="微软雅黑" size="13px" weight="400" font-style="" opacity="1" y="24.375" transform="rotate(0)"><tspan id="SvgjsTspan1041" dy="16" x="50"><tspan id="SvgjsTspan1042" style="text-decoration:;">襄阳长公主</tspan></tspan></text></g></g><g id="SvgjsG1043"><path id="SvgjsPath1044" d="M882.375 428L908.375 428L908.375 428L934.375 428" stroke-dasharray="3,3" stroke="#323232" stroke-width="2" fill="none"></path><rect id="SvgjsRect1045" width="26" height="16" x="895.375" y="420" fill="#ffffff"></rect><text id="SvgjsText1046" font-family="微软雅黑" text-anchor="middle" font-size="13px" width="26px" fill="#323232" font-weight="400" align="top" lineHeight="16px" anchor="middle" family="微软雅黑" size="13px" weight="400" font-style="" opacity="1" y="417.375" transform="rotate(0)"><tspan id="SvgjsTspan1047" dy="16" x="908.375"><tspan id="SvgjsTspan1048" style="text-decoration:;">姐弟</tspan></tspan></text></g><g id="SvgjsG1049"><path id="SvgjsPath1050" d="M1036.375 428L1064.875 428L1064.875 428L1093.375 428" stroke="#323232" stroke-width="2" fill="none"></path><rect id="SvgjsRect1051" width="26" height="16" x="1051.875" y="420" fill="#ffffff"></rect><text id="SvgjsText1052" font-family="微软雅黑" text-anchor="middle" font-size="13px" width="26px" fill="#323232" font-weight="400" align="top" lineHeight="16px" anchor="middle" family="微软雅黑" size="13px" weight="400" font-style="" opacity="1" y="417.375" transform="rotate(0)"><tspan id="SvgjsTspan1053" dy="16" x="1064.875"><tspan id="SvgjsTspan1054" style="text-decoration:;">夫妻</tspan></tspan></text></g><g id="SvgjsG1055" transform="translate(1094.375,393)"><path id="SvgjsPath1056" d="M 0 4Q 0 0 4 0L 96 0Q 100 0 100 4L 100 66Q 100 70 96 70L 4 70Q 0 70 0 66Z" stroke="rgba(50,50,50,1)" stroke-width="2" fill-opacity="1" fill="#ffffff"></path><g id="SvgjsG1057"><text id="SvgjsText1058" font-family="微软雅黑" text-anchor="middle" font-size="13px" width="80px" fill="#323232" font-weight="400" align="middle" lineHeight="125%" anchor="middle" family="微软雅黑" size="13px" weight="400" font-style="" opacity="1" y="7.875" transform="rotate(0)"><tspan id="SvgjsTspan1059" dy="16" x="50"><tspan id="SvgjsTspan1060" style="text-decoration:;">隋</tspan></tspan><tspan id="SvgjsTspan1061" dy="16" x="50"><tspan id="SvgjsTspan1062" style="text-decoration:;">神武公窦毅</tspan></tspan></text></g></g><g id="SvgjsG1063"><path id="SvgjsPath1064" d="M985.375 464L985.375 512.625L1066.375 512.625L1066.375 558.65" stroke="#323232" stroke-width="2" fill="none" marker-end="url(#SvgjsMarker1065)"></path></g><g id="SvgjsG1067" transform="translate(1016.375,562.25)"><path id="SvgjsPath1068" d="M 0 4Q 0 0 4 0L 96 0Q 100 0 100 4L 100 66Q 100 70 96 70L 4 70Q 0 70 0 66Z" stroke="rgba(50,50,50,1)" stroke-width="2" fill-opacity="1" fill="#ffffff"></path><g id="SvgjsG1069"><text id="SvgjsText1070" font-family="微软雅黑" text-anchor="middle" font-size="13px" width="80px" fill="#323232" font-weight="400" align="middle" lineHeight="125%" anchor="middle" family="微软雅黑" size="13px" weight="400" font-style="" opacity="1" y="15.875" transform="rotate(0)"><tspan id="SvgjsTspan1071" dy="16" x="50"><tspan id="SvgjsTspan1072" style="text-decoration:;">太穆皇后</tspan></tspan><tspan id="SvgjsTspan1073" dy="16" x="50"><tspan id="SvgjsTspan1074" style="text-decoration:;">窦氏</tspan></tspan></text></g></g><g id="SvgjsG1075"><path id="SvgjsPath1076" d="M1144.375 464L1144.375 512.625L1066.375 512.625L1066.375 558.65" stroke="#323232" stroke-width="2" fill="none" marker-end="url(#SvgjsMarker1077)"></path></g><g id="SvgjsG1079" transform="translate(1319.375,562.25)"><path id="SvgjsPath1080" d="M 0 4Q 0 0 4 0L 96 0Q 100 0 100 4L 100 66Q 100 70 96 70L 4 70Q 0 70 0 66Z" stroke="rgba(50,50,50,1)" stroke-width="2" fill-opacity="1" fill="#fff176"></path><g id="SvgjsG1081"><text id="SvgjsText1082" font-family="微软雅黑" text-anchor="middle" font-size="13px" width="80px" fill="#323232" font-weight="400" align="middle" lineHeight="125%" anchor="middle" family="微软雅黑" size="13px" weight="400" font-style="" opacity="1" y="15.875" transform="rotate(0)"><tspan id="SvgjsTspan1083" dy="16" x="50"><tspan id="SvgjsTspan1084" style="text-decoration:;">唐高祖李渊</tspan></tspan></text></g></g><g id="SvgjsG1085"><path id="SvgjsPath1086" d="M1117.375 597.25L1217.875 597.25L1217.875 597.25L1318.375 597.25" stroke="#323232" stroke-width="2" fill="none"></path><rect id="SvgjsRect1087" width="26" height="16" x="1204.875" y="589.25" fill="#ffffff"></rect><text id="SvgjsText1088" font-family="微软雅黑" text-anchor="middle" font-size="13px" width="26px" fill="#323232" font-weight="400" align="top" lineHeight="16px" anchor="middle" family="微软雅黑" size="13px" weight="400" font-style="" opacity="1" y="586.625" transform="rotate(0)"><tspan id="SvgjsTspan1089" dy="16" x="1217.875"><tspan id="SvgjsTspan1090" style="text-decoration:;">夫妻</tspan></tspan></text></g><g id="SvgjsG1091"><path id="SvgjsPath1092" d="M831.375 464L831.375 512.625L831.375 512.625L831.375 558.65" stroke="#323232" stroke-width="2" fill="none" marker-end="url(#SvgjsMarker1093)"></path></g><g id="SvgjsG1095" transform="translate(781.375,562.25)"><path id="SvgjsPath1096" d="M 0 4Q 0 0 4 0L 96 0Q 100 0 100 4L 100 66Q 100 70 96 70L 4 70Q 0 70 0 66Z" stroke="rgba(50,50,50,1)" stroke-width="2" fill-opacity="1" fill="#ffffff"></path><g id="SvgjsG1097"><text id="SvgjsText1098" font-family="微软雅黑" text-anchor="middle" font-size="13px" width="80px" fill="#323232" font-weight="400" align="middle" lineHeight="125%" anchor="middle" family="微软雅黑" size="13px" weight="400" font-style="" opacity="1" y="15.875" transform="rotate(0)"><tspan id="SvgjsTspan1099" dy="16" x="50"><tspan id="SvgjsTspan1100" style="text-decoration:;">周宣帝</tspan></tspan><tspan id="SvgjsTspan1101" dy="16" x="50"><tspan id="SvgjsTspan1102" style="text-decoration:;">宇文赟(yūn)</tspan></tspan></text></g></g><g id="SvgjsG1103"><path id="SvgjsPath1104" d="M1369.375 633.25L1369.375 699.625L1211.375 699.625L1211.375 763.4000000000001" stroke="#323232" stroke-width="2" fill="none" marker-end="url(#SvgjsMarker1105)"></path></g><g id="SvgjsG1107" transform="translate(1161.375,767)"><path id="SvgjsPath1108" d="M 0 4Q 0 0 4 0L 96 0Q 100 0 100 4L 100 66Q 100 70 96 70L 4 70Q 0 70 0 66Z" stroke="rgba(50,50,50,1)" stroke-width="2" fill-opacity="1" fill="#ffffff"></path><g id="SvgjsG1109"><text id="SvgjsText1110" font-family="微软雅黑" text-anchor="middle" font-size="13px" width="80px" fill="#323232" font-weight="400" align="middle" lineHeight="125%" anchor="middle" family="微软雅黑" size="13px" weight="400" font-style="" opacity="1" y="15.875" transform="rotate(0)"><tspan id="SvgjsTspan1111" dy="16" x="50"><tspan id="SvgjsTspan1112" style="text-decoration:;">唐太宗</tspan></tspan><tspan id="SvgjsTspan1113" dy="16" x="50"><tspan id="SvgjsTspan1114" style="text-decoration:;">李世民</tspan></tspan></text></g></g><g id="SvgjsG1115"><path id="SvgjsPath1116" d="M1262.375 802L1430.375 802L1430.375 802L1598.375 802" stroke="#323232" stroke-width="2" fill="none"></path><rect id="SvgjsRect1117" width="52" height="16" x="1404.375" y="794" fill="#ffffff"></rect><text id="SvgjsText1118" font-family="微软雅黑" text-anchor="middle" font-size="13px" width="52px" fill="#323232" font-weight="400" align="top" lineHeight="16px" anchor="middle" family="微软雅黑" size="13px" weight="400" font-style="" opacity="1" y="791.375" transform="rotate(0)"><tspan id="SvgjsTspan1119" dy="16" x="1430.375"><tspan id="SvgjsTspan1120" style="text-decoration:;">天作之合</tspan></tspan></text></g><g id="SvgjsG1121" transform="translate(1599.375,767)"><path id="SvgjsPath1122" d="M 0 4Q 0 0 4 0L 96 0Q 100 0 100 4L 100 66Q 100 70 96 70L 4 70Q 0 70 0 66Z" stroke="rgba(50,50,50,1)" stroke-width="2" fill-opacity="1" fill="#ffffff"></path><g id="SvgjsG1123"><text id="SvgjsText1124" font-family="微软雅黑" text-anchor="middle" font-size="13px" width="80px" fill="#323232" font-weight="400" align="middle" lineHeight="125%" anchor="middle" family="微软雅黑" size="13px" weight="400" font-style="" opacity="1" y="15.875" transform="rotate(0)"><tspan id="SvgjsTspan1125" dy="16" x="50"><tspan id="SvgjsTspan1126" style="text-decoration:;">文德皇后</tspan></tspan><tspan id="SvgjsTspan1127" dy="16" x="50"><tspan id="SvgjsTspan1128" style="text-decoration:;">长孙氏</tspan></tspan></text></g></g><g id="SvgjsG1129" transform="translate(1517.375,562.25)"><path id="SvgjsPath1130" d="M 0 4Q 0 0 4 0L 96 0Q 100 0 100 4L 100 66Q 100 70 96 70L 4 70Q 0 70 0 66Z" stroke="rgba(50,50,50,1)" stroke-width="2" fill-opacity="1" fill="#ffffff"></path><g id="SvgjsG1131"><text id="SvgjsText1132" font-family="微软雅黑" text-anchor="middle" font-size="13px" width="80px" fill="#323232" font-weight="400" align="middle" lineHeight="125%" anchor="middle" family="微软雅黑" size="13px" weight="400" font-style="" opacity="1" y="15.875" transform="rotate(0)"><tspan id="SvgjsTspan1133" dy="16" x="50"><tspan id="SvgjsTspan1134" style="text-decoration:;">隋右骁卫将军</tspan></tspan><tspan id="SvgjsTspan1135" dy="16" x="50"><tspan id="SvgjsTspan1136" style="text-decoration:;">长孙晟</tspan></tspan></text></g></g><g id="SvgjsG1137"><path id="SvgjsPath1138" d="M1618.375 597.25L1654.875 597.25L1654.875 597.25L1691.375 597.25" stroke="#323232" stroke-width="2" fill="none"></path><rect id="SvgjsRect1139" width="26" height="16" x="1641.875" y="589.25" fill="#ffffff"></rect><text id="SvgjsText1140" font-family="微软雅黑" text-anchor="middle" font-size="13px" width="26px" fill="#323232" font-weight="400" align="top" lineHeight="16px" anchor="middle" family="微软雅黑" size="13px" weight="400" font-style="" opacity="1" y="586.625" transform="rotate(0)"><tspan id="SvgjsTspan1141" dy="16" x="1654.875"><tspan id="SvgjsTspan1142" style="text-decoration:;">夫妻</tspan></tspan></text></g><g id="SvgjsG1143" transform="translate(1692.375,562.25)"><path id="SvgjsPath1144" d="M 0 4Q 0 0 4 0L 96 0Q 100 0 100 4L 100 66Q 100 70 96 70L 4 70Q 0 70 0 66Z" stroke="rgba(50,50,50,1)" stroke-width="2" fill-opacity="1" fill="#ffffff"></path><g id="SvgjsG1145"><text id="SvgjsText1146" font-family="微软雅黑" text-anchor="middle" font-size="13px" width="80px" fill="#323232" font-weight="400" align="middle" lineHeight="125%" anchor="middle" family="微软雅黑" size="13px" weight="400" font-style="" opacity="1" y="24.375" transform="rotate(0)"><tspan id="SvgjsTspan1147" dy="16" x="50"><tspan id="SvgjsTspan1148" style="text-decoration:;">高氏</tspan></tspan></text></g></g><g id="SvgjsG1149"><path id="SvgjsPath1150" d="M1567.375 633.25L1567.375 699.625L1649.375 699.625L1649.375 763.4000000000001" stroke="#323232" stroke-width="2" fill="none" marker-end="url(#SvgjsMarker1151)"></path></g><g id="SvgjsG1153"><path id="SvgjsPath1154" d="M1742.375 633.25L1742.375 699.625L1649.375 699.625L1649.375 763.4000000000001" stroke="#323232" stroke-width="2" fill="none" marker-end="url(#SvgjsMarker1155)"></path></g><g id="SvgjsG1157" transform="translate(1776.375,393)"><path id="SvgjsPath1158" d="M 0 4Q 0 0 4 0L 96 0Q 100 0 100 4L 100 66Q 100 70 96 70L 4 70Q 0 70 0 66Z" stroke="rgba(50,50,50,1)" stroke-width="2" fill-opacity="1" fill="#ffffff"></path><g id="SvgjsG1159"><text id="SvgjsText1160" font-family="微软雅黑" text-anchor="middle" font-size="13px" width="80px" fill="#323232" font-weight="400" align="middle" lineHeight="125%" anchor="middle" family="微软雅黑" size="13px" weight="400" font-style="" opacity="1" y="15.875" transform="rotate(0)"><tspan id="SvgjsTspan1161" dy="16" x="50"><tspan id="SvgjsTspan1162" style="text-decoration:;">随州刺史</tspan></tspan><tspan id="SvgjsTspan1163" dy="16" x="50"><tspan id="SvgjsTspan1164" style="text-decoration:;">高敬德</tspan></tspan></text></g></g><g id="SvgjsG1165"><path id="SvgjsPath1166" d="M1826.375 464L1826.375 512.625L1742.375 512.625L1742.375 558.65" stroke="#323232" stroke-width="2" fill="none" marker-end="url(#SvgjsMarker1167)"></path></g><g id="SvgjsG1169" transform="translate(1867.375,562.25)"><path id="SvgjsPath1170" d="M 0 4Q 0 0 4 0L 96 0Q 100 0 100 4L 100 66Q 100 70 96 70L 4 70Q 0 70 0 66Z" stroke="rgba(50,50,50,1)" stroke-width="2" fill-opacity="1" fill="#ffffff"></path><g id="SvgjsG1171"><text id="SvgjsText1172" font-family="微软雅黑" text-anchor="middle" font-size="13px" width="80px" fill="#323232" font-weight="400" align="middle" lineHeight="125%" anchor="middle" family="微软雅黑" size="13px" weight="400" font-style="" opacity="1" y="24.375" transform="rotate(0)"><tspan id="SvgjsTspan1173" dy="16" x="50"><tspan id="SvgjsTspan1174" style="text-decoration:;">高士廉</tspan></tspan></text></g></g><g id="SvgjsG1175"><path id="SvgjsPath1176" d="M1826.375 464L1826.375 512.625L1917.375 512.625L1917.375 558.65" stroke="#323232" stroke-width="2" fill="none" marker-end="url(#SvgjsMarker1177)"></path></g><g id="SvgjsG1179"><path id="SvgjsPath1180" d="M1793.375 597.25L1829.875 597.25L1829.875 597.25L1866.375 597.25" stroke-dasharray="3,3" stroke="#323232" stroke-width="2" fill="none"></path><rect id="SvgjsRect1181" width="26" height="16" x="1816.875" y="589.25" fill="#ffffff"></rect><text id="SvgjsText1182" font-family="微软雅黑" text-anchor="middle" font-size="13px" width="26px" fill="#323232" font-weight="400" align="top" lineHeight="16px" anchor="middle" family="微软雅黑" size="13px" weight="400" font-style="" opacity="1" y="586.625" transform="rotate(0)"><tspan id="SvgjsTspan1183" dy="16" x="1829.875"><tspan id="SvgjsTspan1184" style="text-decoration:;">姐弟</tspan></tspan></text></g><g id="SvgjsG1185" transform="translate(1792.375,752)"><path id="SvgjsPath1186" d="M 0 0L 64 0L 80 16L 80 100L 0 100L 0 0Z" stroke="none" fill-opacity="1" fill="#ffffaa"></path><path id="SvgjsPath1187" d="M 64 0L 64 16L 80 16Z" stroke="none" fill-opacity="1" fill="#cdcdcd"></path><path id="SvgjsPath1188" d="M 0 0L 64 0L 80 16L 80 100L 0 100L 0 0Z" stroke="none" fill="none"></path><g id="SvgjsG1189"><text id="SvgjsText1190" font-family="微软雅黑" text-anchor="middle" font-size="13px" width="60px" fill="#323232" font-weight="400" align="middle" lineHeight="125%" anchor="middle" family="微软雅黑" size="13px" weight="400" font-style="" opacity="1" y="6.875" transform="rotate(0)"><tspan id="SvgjsTspan1191" dy="16" x="40"><tspan id="SvgjsTspan1192" style="text-decoration:;">至哉坤元</tspan></tspan><tspan id="SvgjsTspan1193" dy="16" x="40"><tspan id="SvgjsTspan1194" style="text-decoration:;">万物资生</tspan></tspan><tspan id="SvgjsTspan1195" dy="16" x="40"><tspan id="SvgjsTspan1196" style="text-decoration:;">乃顺承天</tspan></tspan><tspan id="SvgjsTspan1197" dy="16" x="40"><tspan id="SvgjsTspan1198" style="text-decoration:;">坤厚载物</tspan></tspan><tspan id="SvgjsTspan1199" dy="16" x="40"><tspan id="SvgjsTspan1200" style="text-decoration:;">德合无疆</tspan></tspan></text></g></g><g id="SvgjsG1201"><path id="SvgjsPath1202" d="M1792.375 802L1745.875 802L1745.875 802L1702.975 802" stroke="#323232" stroke-width="2" fill="none" marker-end="url(#SvgjsMarker1203)"></path></g><g id="SvgjsG1205" transform="translate(1377.875,223.5)"><path id="SvgjsPath1206" d="M 0 4Q 0 0 4 0L 135.5 0Q 139.5 0 139.5 4L 139.5 66Q 139.5 70 135.5 70L 4 70Q 0 70 0 66Z" stroke="rgba(50,50,50,1)" stroke-width="2" fill-opacity="1" fill="#ffffff"></path><g id="SvgjsG1207"><text id="SvgjsText1208" font-family="微软雅黑" text-anchor="middle" font-size="13px" width="120px" fill="#323232" font-weight="400" align="middle" lineHeight="125%" anchor="middle" family="微软雅黑" size="13px" weight="400" font-style="" opacity="1" y="-0.125" transform="rotate(0)"><tspan id="SvgjsTspan1209" dy="16" x="70"><tspan id="SvgjsTspan1210" style="text-decoration:;">北魏、西魏名将</tspan></tspan><tspan id="SvgjsTspan1211" dy="16" x="70"><tspan id="SvgjsTspan1212" style="text-decoration:;">西魏八柱国之一</tspan></tspan><tspan id="SvgjsTspan1213" dy="16" x="70"><tspan id="SvgjsTspan1214" style="text-decoration:;">北周时追尊唐国公李</tspan></tspan><tspan id="SvgjsTspan1215" dy="16" x="70"><tspan id="SvgjsTspan1216" style="text-decoration:;">虎</tspan></tspan></text></g></g><g id="SvgjsG1217" transform="translate(442.375,220)"><path id="SvgjsPath1218" d="M 0 4Q 0 0 4 0L 132 0Q 136 0 136 4L 136 73Q 136 77 132 77L 4 77Q 0 77 0 73Z" stroke="rgba(50,50,50,1)" stroke-width="2" fill-opacity="1" fill="#ffffff"></path><g id="SvgjsG1219"><text id="SvgjsText1220" font-family="微软雅黑" text-anchor="middle" font-size="13px" width="116px" fill="#323232" font-weight="400" align="middle" lineHeight="125%" anchor="middle" family="微软雅黑" size="13px" weight="400" font-style="" opacity="1" y="11.375" transform="rotate(0)"><tspan id="SvgjsTspan1221" dy="16" x="68"><tspan id="SvgjsTspan1222" style="text-decoration:;">大司马</tspan></tspan><tspan id="SvgjsTspan1223" dy="16" x="68"><tspan id="SvgjsTspan1224" style="text-decoration:;">西魏八柱国之一</tspan></tspan><tspan id="SvgjsTspan1225" dy="16" x="68"><tspan id="SvgjsTspan1226" style="text-decoration:;">独孤信</tspan></tspan></text></g></g><g id="SvgjsG1227" transform="translate(50.875,398)"><path id="SvgjsPath1228" d="M 0 0L 100 0L 100 70L 0 70Z" stroke="rgba(50,50,50,1)" stroke-width="2" fill-opacity="1" fill="#fff176"></path><g id="SvgjsG1229"><text id="SvgjsText1230" font-family="微软雅黑" text-anchor="middle" font-size="13px" width="80px" fill="#323232" font-weight="400" align="middle" lineHeight="125%" anchor="middle" family="微软雅黑" size="13px" weight="400" font-style="" opacity="1" y="15.875" transform="rotate(0)"><tspan id="SvgjsTspan1231" dy="16" x="50"><tspan id="SvgjsTspan1232" style="text-decoration:;">隋文帝</tspan></tspan><tspan id="SvgjsTspan1233" dy="16" x="50"><tspan id="SvgjsTspan1234" style="text-decoration:;">杨坚</tspan></tspan></text></g></g><g id="SvgjsG1235" transform="translate(243.375,393)"><path id="SvgjsPath1236" d="M 0 4Q 0 0 4 0L 96 0Q 100 0 100 4L 100 66Q 100 70 96 70L 4 70Q 0 70 0 66Z" stroke="rgba(50,50,50,1)" stroke-width="2" fill-opacity="1" fill="#ffffff"></path><g id="SvgjsG1237"><text id="SvgjsText1238" font-family="微软雅黑" text-anchor="middle" font-size="13px" width="80px" fill="#323232" font-weight="400" align="middle" lineHeight="125%" anchor="middle" family="微软雅黑" size="13px" weight="400" font-style="" opacity="1" y="7.875" transform="rotate(0)"><tspan id="SvgjsTspan1239" dy="16" x="50"><tspan id="SvgjsTspan1240" style="text-decoration:;">隋文献皇后</tspan></tspan><tspan id="SvgjsTspan1241" dy="16" x="50"><tspan id="SvgjsTspan1242" style="text-decoration:;">独孤伽罗</tspan></tspan></text></g></g><g id="SvgjsG1243"><path id="SvgjsPath1244" d="M151.875 433L197.125 433L197.125 428L242.375 428" stroke="#323232" stroke-width="2" fill="none"></path><rect id="SvgjsRect1245" width="26" height="16" x="184.125" y="422.5" fill="#ffffff"></rect><text id="SvgjsText1246" font-family="微软雅黑" text-anchor="middle" font-size="13px" width="26px" fill="#323232" font-weight="400" align="top" lineHeight="16px" anchor="middle" family="微软雅黑" size="13px" weight="400" font-style="" opacity="1" y="419.875" transform="rotate(0)"><tspan id="SvgjsTspan1247" dy="16" x="197.125"><tspan id="SvgjsTspan1248" style="text-decoration:;">夫妻</tspan></tspan></text></g><g id="SvgjsG1249" transform="translate(620.875,393)"><path id="SvgjsPath1250" d="M 0 4Q 0 0 4 0L 96 0Q 100 0 100 4L 100 66Q 100 70 96 70L 4 70Q 0 70 0 66Z" stroke="rgba(50,50,50,1)" stroke-width="2" fill-opacity="1" fill="#ffffff"></path><g id="SvgjsG1251"><text id="SvgjsText1252" font-family="微软雅黑" text-anchor="middle" font-size="13px" width="80px" fill="#323232" font-weight="400" align="middle" lineHeight="125%" anchor="middle" family="微软雅黑" size="13px" weight="400" font-style="" opacity="1" y="15.875" transform="rotate(0)"><tspan id="SvgjsTspan1253" dy="16" x="50"><tspan id="SvgjsTspan1254" style="text-decoration:;">周明帝</tspan></tspan><tspan id="SvgjsTspan1255" dy="16" x="50"><tspan id="SvgjsTspan1256" style="text-decoration:;">宇文毓</tspan></tspan></text></g></g><g id="SvgjsG1257"><path id="SvgjsPath1258" d="M831.375 298L831.375 345L670.875 345L670.875 389.4" stroke="#323232" stroke-width="2" fill="none" marker-end="url(#SvgjsMarker1259)"></path><rect id="SvgjsRect1261" width="78" height="48" x="713.425" y="321" fill="#ffffff"></rect><text id="SvgjsText1262" font-family="微软雅黑" text-anchor="middle" font-size="13px" width="78px" fill="#323232" font-weight="400" align="top" lineHeight="16px" anchor="middle" family="微软雅黑" size="13px" weight="400" font-style="" opacity="1" y="318.375" transform="rotate(0)"><tspan id="SvgjsTspan1263" dy="16" x="752.425"><tspan id="SvgjsTspan1264" style="text-decoration:;">宇文护迫西魏</tspan></tspan><tspan id="SvgjsTspan1265" dy="16" x="752.425"><tspan id="SvgjsTspan1266" style="text-decoration:;">禅宇文觉</tspan></tspan><tspan id="SvgjsTspan1267" dy="16" x="752.425"><tspan id="SvgjsTspan1268" style="text-decoration:;">再连杀二弟</tspan></tspan></text></g><g id="SvgjsG1269"><path id="SvgjsPath1270" d="M721.875 428L751.125 428L751.125 428L777.775 428" stroke="#323232" stroke-width="2" fill="none" marker-end="url(#SvgjsMarker1271)"></path><rect id="SvgjsRect1273" width="13" height="16" x="743.3249999999999" y="420" fill="#ffffff"></rect><text id="SvgjsText1274" font-family="微软雅黑" text-anchor="middle" font-size="13px" width="13px" fill="#323232" font-weight="400" align="top" lineHeight="16px" anchor="middle" family="微软雅黑" size="13px" weight="400" font-style="" opacity="1" y="417.375" transform="rotate(0)"><tspan id="SvgjsTspan1275" dy="16" x="749.8249999999999"><tspan id="SvgjsTspan1276" style="text-decoration:;">弟</tspan></tspan></text></g><g id="SvgjsG1277" transform="translate(460.375,393)"><path id="SvgjsPath1278" d="M 0 4Q 0 0 4 0L 96 0Q 100 0 100 4L 100 66Q 100 70 96 70L 4 70Q 0 70 0 66Z" stroke="rgba(50,50,50,1)" stroke-width="2" fill-opacity="1" fill="#ffffff"></path><g id="SvgjsG1279"><text id="SvgjsText1280" font-family="微软雅黑" text-anchor="middle" font-size="13px" width="80px" fill="#323232" font-weight="400" align="middle" lineHeight="125%" anchor="middle" family="微软雅黑" size="13px" weight="400" font-style="" opacity="1" y="7.875" transform="rotate(0)"><tspan id="SvgjsTspan1281" dy="16" x="50"><tspan id="SvgjsTspan1282" style="text-decoration:;">北周</tspan></tspan><tspan id="SvgjsTspan1283" dy="16" x="50"><tspan id="SvgjsTspan1284" style="text-decoration:;">明敬皇后</tspan></tspan><tspan id="SvgjsTspan1285" dy="16" x="50"><tspan id="SvgjsTspan1286" style="text-decoration:;">独孤氏</tspan></tspan></text></g></g><g id="SvgjsG1287"><path id="SvgjsPath1288" d="M459.375 428L401.875 428L401.875 428L346.975 428" stroke="#323232" stroke-width="2" fill="none" marker-end="url(#SvgjsMarker1289)"></path><rect id="SvgjsRect1291" width="13" height="16" x="396.675" y="420" fill="#ffffff"></rect><text id="SvgjsText1292" font-family="微软雅黑" text-anchor="middle" font-size="13px" width="13px" fill="#323232" font-weight="400" align="top" lineHeight="16px" anchor="middle" family="微软雅黑" size="13px" weight="400" font-style="" opacity="1" y="417.375" transform="rotate(0)"><tspan id="SvgjsTspan1293" dy="16" x="403.175"><tspan id="SvgjsTspan1294" style="text-decoration:;">妹</tspan></tspan></text></g><g id="SvgjsG1295"><path id="SvgjsPath1296" d="M619.875 428L590.625 428L590.625 428L561.375 428" stroke="#323232" stroke-width="2" fill="none"></path><rect id="SvgjsRect1297" width="26" height="16" x="577.625" y="420" fill="#ffffff"></rect><text id="SvgjsText1298" font-family="微软雅黑" text-anchor="middle" font-size="13px" width="26px" fill="#323232" font-weight="400" align="top" lineHeight="16px" anchor="middle" family="微软雅黑" size="13px" weight="400" font-style="" opacity="1" y="417.375" transform="rotate(0)"><tspan id="SvgjsTspan1299" dy="16" x="590.625"><tspan id="SvgjsTspan1300" style="text-decoration:;">夫妻</tspan></tspan></text></g><g id="SvgjsG1301"><path id="SvgjsPath1302" d="M510.375 298L510.375 345L510.375 345L510.375 389.4" stroke="#ffcdd2" stroke-width="2" fill="none" marker-end="url(#SvgjsMarker1303)"></path><rect id="SvgjsRect1305" width="26" height="16" x="497.375" y="353" fill="#ffffff"></rect><text id="SvgjsText1306" font-family="微软雅黑" text-anchor="middle" font-size="13px" width="26px" fill="#323232" font-weight="400" align="top" lineHeight="16px" anchor="middle" family="微软雅黑" size="13px" weight="400" font-style="" opacity="1" y="350.375" transform="rotate(0)"><tspan id="SvgjsTspan1307" dy="16" x="510.375"><tspan id="SvgjsTspan1308" style="text-decoration:;">长女</tspan></tspan></text></g><g id="SvgjsG1309"><path id="SvgjsPath1310" d="M510.375 298L510.375 345L293.375 345L293.375 389.4" stroke="#ffcdd2" stroke-width="2" fill="none" marker-end="url(#SvgjsMarker1311)"></path><rect id="SvgjsRect1313" width="26" height="16" x="390.175" y="337" fill="#ffffff"></rect><text id="SvgjsText1314" font-family="微软雅黑" text-anchor="middle" font-size="13px" width="26px" fill="#323232" font-weight="400" align="top" lineHeight="16px" anchor="middle" family="微软雅黑" size="13px" weight="400" font-style="" opacity="1" y="334.375" transform="rotate(0)"><tspan id="SvgjsTspan1315" dy="16" x="403.175"><tspan id="SvgjsTspan1316" style="text-decoration:;">七女</tspan></tspan></text></g><g id="SvgjsG1317" transform="translate(243.375,562.25)"><path id="SvgjsPath1318" d="M 0 4Q 0 0 4 0L 96 0Q 100 0 100 4L 100 66Q 100 70 96 70L 4 70Q 0 70 0 66Z" stroke="rgba(50,50,50,1)" stroke-width="2" fill-opacity="1" fill="#ffffff"></path><g id="SvgjsG1319"><text id="SvgjsText1320" font-family="微软雅黑" text-anchor="middle" font-size="13px" width="80px" fill="#323232" font-weight="400" align="middle" lineHeight="125%" anchor="middle" family="微软雅黑" size="13px" weight="400" font-style="" opacity="1" y="7.875" transform="rotate(0)"><tspan id="SvgjsTspan1321" dy="16" x="50"><tspan id="SvgjsTspan1322" style="text-decoration:;">北周</tspan></tspan><tspan id="SvgjsTspan1323" dy="16" x="50"><tspan id="SvgjsTspan1324" style="text-decoration:;">皇后</tspan></tspan><tspan id="SvgjsTspan1325" dy="16" x="50"><tspan id="SvgjsTspan1326" style="text-decoration:;">杨丽华</tspan></tspan></text></g></g><g id="SvgjsG1327"><path id="SvgjsPath1328" d="M293.375 464L293.375 512.625L293.375 512.625L293.375 558.65" stroke="#323232" stroke-width="2" fill="none" marker-end="url(#SvgjsMarker1329)"></path><rect id="SvgjsRect1331" width="26" height="16" x="280.375" y="503.325" fill="#ffffff"></rect><text id="SvgjsText1332" font-family="微软雅黑" text-anchor="middle" font-size="13px" width="26px" fill="#323232" font-weight="400" align="top" lineHeight="16px" anchor="middle" family="微软雅黑" size="13px" weight="400" font-style="" opacity="1" y="500.7" transform="rotate(0)"><tspan id="SvgjsTspan1333" dy="16" x="293.375"><tspan id="SvgjsTspan1334" style="text-decoration:;">长女</tspan></tspan></text></g><g id="SvgjsG1335"><path id="SvgjsPath1336" d="M780.375 597.25L562.375 597.25L562.375 597.25L344.375 597.25" stroke="#323232" stroke-width="2" fill="none"></path><rect id="SvgjsRect1337" width="26" height="16" x="549.375" y="589.25" fill="#ffffff"></rect><text id="SvgjsText1338" font-family="微软雅黑" text-anchor="middle" font-size="13px" width="26px" fill="#323232" font-weight="400" align="top" lineHeight="16px" anchor="middle" family="微软雅黑" size="13px" weight="400" font-style="" opacity="1" y="586.625" transform="rotate(0)"><tspan id="SvgjsTspan1339" dy="16" x="562.375"><tspan id="SvgjsTspan1340" style="text-decoration:;">夫妻</tspan></tspan></text></g><g id="SvgjsG1341" transform="translate(324.875,25)"><path id="SvgjsPath1342" d="M 0 0L 296 0L 296 117.5L 0 117.5Z" stroke="none" fill="url(#SvgjsPattern1343)" opacity="1"></path></g><g id="SvgjsG1345"><path id="SvgjsPath1346" d="M100.875 469L100.875 515.125L293.375 515.125L293.375 558.65" stroke="#323232" stroke-width="2" fill="none" marker-end="url(#SvgjsMarker1347)"></path></g><g id="SvgjsG1349" transform="translate(1233.375,393)"><path id="SvgjsPath1350" d="M 0 4Q 0 0 4 0L 96 0Q 100 0 100 4L 100 66Q 100 70 96 70L 4 70Q 0 70 0 66Z" stroke="rgba(50,50,50,1)" stroke-width="2" fill-opacity="1" fill="#ffffff"></path><g id="SvgjsG1351"><text id="SvgjsText1352" font-family="微软雅黑" text-anchor="middle" font-size="13px" width="80px" fill="#323232" font-weight="400" align="middle" lineHeight="125%" anchor="middle" family="微软雅黑" size="13px" weight="400" font-style="" opacity="1" y="7.875" transform="rotate(0)"><tspan id="SvgjsTspan1353" dy="16" x="50"><tspan id="SvgjsTspan1354" style="text-decoration:;">大唐</tspan></tspan><tspan id="SvgjsTspan1355" dy="16" x="50"><tspan id="SvgjsTspan1356" style="text-decoration:;">追尊元贞皇后</tspan></tspan><tspan id="SvgjsTspan1357" dy="16" x="50"><tspan id="SvgjsTspan1358" style="text-decoration:;">独孤夫人</tspan></tspan></text></g></g><g id="SvgjsG1359"><path id="SvgjsPath1360" d="M1283.375 464L1283.375 512.625L1369.375 512.625L1369.375 558.65" stroke="#323232" stroke-width="2" fill="none" marker-end="url(#SvgjsMarker1361)"></path></g><g id="SvgjsG1363" transform="translate(1397.625,393)"><path id="SvgjsPath1364" d="M 0 4Q 0 0 4 0L 96 0Q 100 0 100 4L 100 66Q 100 70 96 70L 4 70Q 0 70 0 66Z" stroke="rgba(50,50,50,1)" stroke-width="2" fill-opacity="1" fill="#ffffff"></path><g id="SvgjsG1365"><text id="SvgjsText1366" font-family="微软雅黑" text-anchor="middle" font-size="13px" width="80px" fill="#323232" font-weight="400" align="middle" lineHeight="125%" anchor="middle" family="微软雅黑" size="13px" weight="400" font-style="" opacity="1" y="24.375" transform="rotate(0)"><tspan id="SvgjsTspan1367" dy="16" x="50"><tspan id="SvgjsTspan1368" style="text-decoration:;">李昞</tspan></tspan></text></g></g><g id="SvgjsG1369"><path id="SvgjsPath1370" d="M1447.625 294.5L1447.625 343.25L1447.625 343.25L1447.625 389.4" stroke="#323232" stroke-width="2" fill="none" marker-end="url(#SvgjsMarker1371)"></path></g><g id="SvgjsG1373"><path id="SvgjsPath1374" d="M1447.625 464L1447.625 512.625L1369.375 512.625L1369.375 558.65" stroke="#323232" stroke-width="2" fill="none" marker-end="url(#SvgjsMarker1375)"></path></g><g id="SvgjsG1377"><path id="SvgjsPath1378" d="M510.375 298L510.375 345L1283.375 345L1283.375 389.4" stroke="#ffcdd2" stroke-width="2" fill="none" marker-end="url(#SvgjsMarker1379)"></path><rect id="SvgjsRect1381" width="26" height="16" x="574.675" y="337" fill="#ffffff"></rect><text id="SvgjsText1382" font-family="微软雅黑" text-anchor="middle" font-size="13px" width="26px" fill="#323232" font-weight="400" align="top" lineHeight="16px" anchor="middle" family="微软雅黑" size="13px" weight="400" font-style="" opacity="1" y="334.375" transform="rotate(0)"><tspan id="SvgjsTspan1383" dy="16" x="587.675"><tspan id="SvgjsTspan1384" style="text-decoration:;">四女</tspan></tspan></text></g><g id="SvgjsG1385"><path id="SvgjsPath1386" d="M831.375 633.25L831.375 699.625L831.375 699.625L831.375 763.4000000000001" stroke="#323232" stroke-width="2" fill="none" marker-end="url(#SvgjsMarker1387)"></path></g><g id="SvgjsG1389" transform="translate(781.375,767)"><path id="SvgjsPath1390" d="M 0 4Q 0 0 4 0L 96 0Q 100 0 100 4L 100 66Q 100 70 96 70L 4 70Q 0 70 0 66Z" stroke="rgba(50,50,50,1)" stroke-width="2" fill-opacity="1" fill="#ffffff"></path><g id="SvgjsG1391"><text id="SvgjsText1392" font-family="微软雅黑" text-anchor="middle" font-size="13px" width="80px" fill="#323232" font-weight="400" align="middle" lineHeight="125%" anchor="middle" family="微软雅黑" size="13px" weight="400" font-style="" opacity="1" y="15.875" transform="rotate(0)"><tspan id="SvgjsTspan1393" dy="16" x="50"><tspan id="SvgjsTspan1394" style="text-decoration:;">周静帝</tspan></tspan><tspan id="SvgjsTspan1395" dy="16" x="50"><tspan id="SvgjsTspan1396" style="text-decoration:;">宇文阐(chǎn)</tspan></tspan></text></g></g><g id="SvgjsG1397"><path id="SvgjsPath1398" d="M1066.375 633.25L1066.375 699.625L1211.375 699.625L1211.375 763.4000000000001" stroke="#323232" stroke-width="2" fill="none" marker-end="url(#SvgjsMarker1399)"></path></g><g id="SvgjsG1401"><path id="SvgjsPath1402" d="M1334.375 428L1365.5 428L1365.5 428L1396.625 428" stroke="#323232" stroke-width="2" fill="none"></path><rect id="SvgjsRect1403" width="26" height="16" x="1352.5" y="420" fill="#ffffff"></rect><text id="SvgjsText1404" font-family="微软雅黑" text-anchor="middle" font-size="13px" width="26px" fill="#323232" font-weight="400" align="top" lineHeight="16px" anchor="middle" family="微软雅黑" size="13px" weight="400" font-style="" opacity="1" y="417.375" transform="rotate(0)"><tspan id="SvgjsTspan1405" dy="16" x="1365.5"><tspan id="SvgjsTspan1406" style="text-decoration:;">夫妻</tspan></tspan></text></g><g id="SvgjsG1407" transform="translate(25,223.5000000000001)"><path id="SvgjsPath1408" d="M 0 4Q 0 0 4 0L 147.75 0Q 151.75 0 151.75 4L 151.75 65.99999999999977Q 151.75 69.99999999999977 147.75 69.99999999999977L 4 69.99999999999977Q 0 69.99999999999977 0 65.99999999999977Z" stroke="rgba(50,50,50,1)" stroke-width="2" fill-opacity="1" fill="#ffffff"></path><g id="SvgjsG1409"><text id="SvgjsText1410" font-family="微软雅黑" text-anchor="middle" font-size="13px" width="132px" fill="#323232" font-weight="400" align="middle" lineHeight="125%" anchor="middle" family="微软雅黑" size="13px" weight="400" font-style="" opacity="1" y="15.874999999999886" transform="rotate(0)"><tspan id="SvgjsTspan1411" dy="16" x="76"><tspan id="SvgjsTspan1412" style="text-decoration:;">西魏十二大将之一杨忠</tspan></tspan></text></g></g><g id="SvgjsG1413"><path id="SvgjsPath1414" d="M100.875 294.4999999999999L100.875 345.75L100.875 345.75L100.875 394.4" stroke="#323232" stroke-width="2" fill="none" marker-end="url(#SvgjsMarker1415)"></path></g><g id="SvgjsG1417" transform="translate(50.875,562.25)"><path id="SvgjsPath1418" d="M 0 4Q 0 0 4 0L 96 0Q 100 0 100 4L 100 66Q 100 70 96 70L 4 70Q 0 70 0 66Z" stroke="rgba(50,50,50,1)" stroke-width="2" fill-opacity="1" fill="#ffffff"></path><g id="SvgjsG1419"><text id="SvgjsText1420" font-family="微软雅黑" text-anchor="middle" font-size="13px" width="80px" fill="#323232" font-weight="400" align="middle" lineHeight="125%" anchor="middle" family="微软雅黑" size="13px" weight="400" font-style="" opacity="1" y="15.875" transform="rotate(0)"><tspan id="SvgjsTspan1421" dy="16" x="50"><tspan id="SvgjsTspan1422" style="text-decoration:;">隋炀帝</tspan></tspan><tspan id="SvgjsTspan1423" dy="16" x="50"><tspan id="SvgjsTspan1424" style="text-decoration:;">杨广</tspan></tspan></text></g></g><g id="SvgjsG1425"><path id="SvgjsPath1426" d="M100.875 469L100.875 515.125L100.875 515.125L100.875 558.65" stroke="#323232" stroke-width="2" fill="none" marker-end="url(#SvgjsMarker1427)"></path></g><g id="SvgjsG1429"><path id="SvgjsPath1430" d="M293.375 464L293.375 512.625L100.875 512.625L100.875 558.65" stroke="#323232" stroke-width="2" fill="none" marker-end="url(#SvgjsMarker1431)"></path></g></svg>